<svg xmlns="http://www.w3.org/2000/svg" viewBox="0 0 640 512"><!--! Font Awesome Free 6.7.2 by @fontawesome - https://fontawesome.com License - https://fontawesome.com/license/free (Icons: CC BY 4.0, Fonts: SIL OFL 1.1, Code: MIT License) Copyright 2024 Fonticons, Inc. --><path d="M96 64c0-17.7 14.3-32 32-32l32 0c17.7 0 32 14.3 32 32l0 160 0 64 0 160c0 17.7-14.3 32-32 32l-32 0c-17.7 0-32-14.3-32-32l0-64-32 0c-17.7 0-32-14.3-32-32l0-64c-17.7 0-32-14.3-32-32s14.3-32 32-32l0-64c0-17.7 14.3-32 32-32l32 0 0-64zm448 0l0 64 32 0c17.7 0 32 14.3 32 32l0 64c17.7 0 32 14.3 32 32s-14.3 32-32 32l0 64c0 17.7-14.3 32-32 32l-32 0 0 64c0 17.7-14.3 32-32 32l-32 0c-17.7 0-32-14.3-32-32l0-160 0-64 0-160c0-17.7 14.3-32 32-32l32 0c17.7 0 32 14.3 32 32zM416 224l0 64-192 0 0-64 192 0z"/></svg><svg xmlns="http://www.w3.org/2000/svg" viewBox="0 0 512 512"><path d="M224 48c0-26.5-21.5-48-48-48H48C21.5 0 0 21.5 0 48v48c0 14.8 6.7 28 17.2 36.8L59 168.4c17.5 14.6 29 36.4 29 60.1V288c0 53 43 96 96 96h57.9c12.3 0 23.6-7.3 29.1-18.4l15.1-30.1c11.3-22.5 31.9-38.6 56.1-43.5l14.4-2.9c37.7-7.5 73.1 11.4 86.8 47.7l13.6 36.3c1.7 4.6 6 7.6 11 7.6h46.1c6.5 0 12.3-4.2 14.2-10.5l14.5-48.4c11.5-38.2 2-79.3-25.1-108.5l-20.9-22.6c-17.6-19-41-31.5-66.8-35.8L326.6 200c-17.1-2.9-32.5-12.7-43.1-27.2L262.2 143c-14.8-20.2-38.1-32.5-63.5-33.1L176 109.4V48h48z"/></svg>
